<svg xmlns="http://www.w3.org/2000/svg" viewBox="0 0 24 30" x="0px" y="0px"><title>bussines, management, career, Answer, call, phone, contact</title><g><path d="M22,16v7a1,1,0,0,1-1,1A21.0242,21.0242,0,0,1,0,3,1,1,0,0,1,1,2H8a1,1,0,0,1,.9287.6289l2,5a1,1,0,0,1-.2891,1.14L8.1973,10.8037a15.0289,15.0289,0,0,0,4.999,4.999L15.2314,13.36a1.008,1.008,0,0,1,1.14-.2891l5,2A1,1,0,0,1,22,16ZM14,8a2.0027,2.0027,0,0,1,2,2,1,1,0,0,0,2,0,4.0039,4.0039,0,0,0-4-4,1,1,0,0,0,0,2Zm0-3a5.0059,5.0059,0,0,1,5,5,1,1,0,0,0,2,0,7.0085,7.0085,0,0,0-7-7,1,1,0,0,0,0,2Zm0-5a1,1,0,0,0,0,2,8.0092,8.0092,0,0,1,8,8,1,1,0,0,0,2,0A10.0117,10.0117,0,0,0,14,0Z"/></g><text x="0" y="39" fill="#000000" font-size="5px" font-weight="bold" font-family="'Helvetica Neue', Helvetica, Arial-Unicode, Arial, Sans-serif">Created by Kmg Design</text><text x="0" y="44" fill="#000000" font-size="5px" font-weight="bold" font-family="'Helvetica Neue', Helvetica, Arial-Unicode, Arial, Sans-serif">from the Noun Project</text></svg>