<svg xmlns="http://www.w3.org/2000/svg" viewBox="0 0 32 40" x="0px" y="0px"><title>drink</title><g data-name="Layer 78"><path d="M17.0807,8.7976H14.9193V5.7867L17.88,2.804a1.1068,1.1068,0,0,1,1.5239,0,1.0693,1.0693,0,0,1,.3134.7673,1.0374,1.0374,0,0,1-.3242.7673L17.3941,6.3812a1.045,1.045,0,0,0-.3134.7565Zm9.0965,2.1614H5.8228a1.0808,1.0808,0,0,0,0,2.1615H26.1772a1.0808,1.0808,0,0,0,0-2.1615ZM9.17,28.3955a1.1656,1.1656,0,0,0,1.1348,1.1132H21.6954A1.1573,1.1573,0,0,0,22.83,28.46l1.8372-13.1741H7.3326Z"/></g><text x="0" y="47" fill="#000000" font-size="5px" font-weight="bold" font-family="'Helvetica Neue', Helvetica, Arial-Unicode, Arial, Sans-serif">Created by agus raharjo</text><text x="0" y="52" fill="#000000" font-size="5px" font-weight="bold" font-family="'Helvetica Neue', Helvetica, Arial-Unicode, Arial, Sans-serif">from the Noun Project</text></svg>