<svg xmlns="http://www.w3.org/2000/svg" xmlns:xlink="http://www.w3.org/1999/xlink" version="1.1" x="0px" y="0px" viewBox="0 0 44 55" enable-background="new 0 0 44 44" xml:space="preserve"><path d="M37.584,19.166h-1.738l-4.994,3.82l-6.021-3.82H6.416c-1.518,0-2.75,1.232-2.75,2.75c0,1.52,1.232,2.75,2.75,2.75h31.168  c1.518,0,2.75-1.23,2.75-2.75C40.334,20.398,39.102,19.166,37.584,19.166z"/><path d="M33.107,27.416c-1.217,0-1.785-0.203-2.441-0.439c-0.729-0.264-1.555-0.561-3.119-0.561s-2.389,0.297-3.117,0.561  c-0.656,0.236-1.225,0.439-2.439,0.439c-1.213,0-1.779-0.203-2.436-0.439c-0.729-0.264-1.553-0.561-3.115-0.561  s-2.387,0.297-3.115,0.561c-0.656,0.236-1.225,0.439-2.438,0.439c-1.215,0-1.781-0.203-2.438-0.439  c-0.729-0.264-1.553-0.561-3.115-0.561v2c1.213,0,1.779,0.205,2.438,0.441c0.727,0.262,1.551,0.559,3.115,0.559  c1.563,0,2.387-0.297,3.115-0.559c0.656-0.236,1.225-0.441,2.438-0.441s1.781,0.205,2.438,0.441  c0.727,0.262,1.551,0.559,3.113,0.559c1.564,0,2.389-0.297,3.117-0.559c0.658-0.236,1.225-0.441,2.439-0.441  s1.783,0.205,2.441,0.441c0.729,0.262,1.555,0.559,3.119,0.559s2.389-0.297,3.117-0.559c0.658-0.236,1.227-0.441,2.441-0.441v-2  c-1.564,0-2.389,0.297-3.117,0.561C34.891,27.213,34.322,27.416,33.107,27.416z"/><path d="M5.666,34.416c0,1.658,1.344,3,3,3h26.666c1.658,0,3-1.342,3-3V30.75H5.666V34.416z"/><path d="M27.5,6.584h-11c-5.984,0-10.834,4.85-10.834,10.832h32.666C38.332,11.434,33.482,6.584,27.5,6.584z M10.916,15.25  c-0.598,0-1.084-0.484-1.084-1.084c0-0.598,0.486-1.082,1.084-1.082c0.6,0,1.084,0.484,1.084,1.082  C12,14.766,11.516,15.25,10.916,15.25z M16.666,11.166c-0.598,0-1.084-0.484-1.084-1.082c0-0.6,0.486-1.084,1.084-1.084  c0.6,0,1.084,0.484,1.084,1.084C17.75,10.682,17.266,11.166,16.666,11.166z M22,13.658c-0.6,0-1.084-0.486-1.084-1.084  c0-0.6,0.484-1.084,1.084-1.084c0.598,0,1.082,0.484,1.082,1.084C23.082,13.172,22.598,13.658,22,13.658z M28.416,12.25  c-0.6,0-1.084-0.484-1.084-1.084c0-0.598,0.484-1.082,1.084-1.082c0.598,0,1.084,0.484,1.084,1.082  C29.5,11.766,29.014,12.25,28.416,12.25z M33.5,16.334c-0.6,0-1.084-0.484-1.084-1.084c0-0.598,0.484-1.084,1.084-1.084  c0.598,0,1.082,0.486,1.082,1.084C34.582,15.85,34.098,16.334,33.5,16.334z"/><text x="0" y="59" fill="#000000" font-size="5px" font-weight="bold" font-family="'Helvetica Neue', Helvetica, Arial-Unicode, Arial, Sans-serif">Created by Icon Solutions</text><text x="0" y="64" fill="#000000" font-size="5px" font-weight="bold" font-family="'Helvetica Neue', Helvetica, Arial-Unicode, Arial, Sans-serif">from the Noun Project</text></svg>