<svg xmlns="http://www.w3.org/2000/svg" xmlns:xlink="http://www.w3.org/1999/xlink" xml:space="preserve" version="1.1" style="shape-rendering:geometricPrecision;text-rendering:geometricPrecision;image-rendering:optimizeQuality;" viewBox="0 0 474.2 539.0625" x="0px" y="0px" fill-rule="evenodd" clip-rule="evenodd"><defs><style type="text/css">
   
    .fil0 {fill:black}
   
  </style></defs><g><path class="fil0" d="M35.44 223.46c-8.64,7.86 -22.06,7.23 -29.93,-1.41 -7.86,-8.64 -7.22,-22.06 1.41,-29.92l196.88 -179.25c18.85,-17.17 47.75,-17.17 66.6,0l84 76.48 0 -26.75c0,-7.39 6.05,-13.44 13.44,-13.44l30.4 0c7.39,0 13.44,6.05 13.44,13.44l0 78.9 55.6 50.62c8.63,7.86 9.27,21.28 1.41,29.92 -7.87,8.64 -21.29,9.27 -29.93,1.41 -68.09,-62 -127.02,-115.65 -196.88,-179.25 -2.68,-2.45 -6.88,-2.45 -9.56,0l-196.88 179.25z"/><path class="fil0" d="M410.26 230.98l0 171.98c0,15.58 -12.7,28.29 -28.28,28.29l-95.38 0 0 -143.9 -99 0 0 143.9 -95.38 0c-15.58,0 -28.28,-12.71 -28.28,-28.29l0 -171.98 173.16 -157.65 173.16 157.65z"/></g><text x="0" y="446.25" fill="#000000" font-size="5px" font-weight="bold" font-family="'Helvetica Neue', Helvetica, Arial-Unicode, Arial, Sans-serif">Created by Miss Jannes</text><text x="0" y="451.25" fill="#000000" font-size="5px" font-weight="bold" font-family="'Helvetica Neue', Helvetica, Arial-Unicode, Arial, Sans-serif">from the Noun Project</text></svg>