<svg xmlns="http://www.w3.org/2000/svg" xmlns:xlink="http://www.w3.org/1999/xlink" version="1.1" x="0px" y="0px" viewBox="0 0 100 125" style="enable-background:new 0 0 100 100;" xml:space="preserve"><g><path d="M100,27.993c0,2.668,0,44.94,0,46.231c0,1.293-2.188,2.665-2.851,3.084h-2.431c0.635-1.047,1.168-2.45,1.168-4.258V27.993   c0-3.027-1.633-5.825-2.992-7.632h2.967C95.861,20.361,100,22.936,100,27.993z M74.34,68.037c0,4.147-2.359,6.129-4.377,6.891   c-0.152,0.674-0.42,1.504-0.891,2.381h19.682c0.758-0.744,1.666-1.963,1.666-3.528V27.993c0-3.585-2.576-6.435-3.858-7.632h-18.2   c0,0-4.139,2.575-4.139,7.632c0,1.248,0,11.151,0,21.477c2.619,3.617,3.869,7.656,4.619,11.098   C71.459,61.21,74.34,63.417,74.34,68.037z M90.067,77.309h1.745c0.738-0.764,1.77-2.123,1.77-4.258V27.993   c0-3.323-2.674-6.533-3.689-7.632h-1.941c1.458,1.538,3.439,4.249,3.439,7.632V73.78C91.391,75.25,90.764,76.439,90.067,77.309z    M68.529,78.201c0.276,0.472,1.053,1.402,2.884,1.402H92.81c2.45,0,3.015-1.669,3.015-1.669H68.705   C68.648,78.023,68.59,78.112,68.529,78.201z M67.926,19.486h28.371c0.551,0,0.998-0.447,0.998-0.998s-0.447-0.997-0.998-0.997   H67.926c-0.551,0-0.998,0.446-0.998,0.997S67.375,19.486,67.926,19.486z M16.998,74.921c0.223,1.256,0.676,2.578,1.626,3.811   c-3.908,0.101-7.81,0.533-11.658,1.311C4.645,69.112,2.322,58.184,0,47.255c0.542-0.109,1.086-0.214,1.63-0.314l-0.736-1.859   l1.911-4.101l-1.542-6.482l5.07-3.38l1.006,4.244l0.809-0.831l-1.863-8.284l4.771-1.489l0.615,2.562l-0.142-3.098l5.294,0.194   l-0.12-2.604l5.523-2.137l0.543,6.131L23.1,22.07l5.126-1.377l-0.487,13.709l1.583-11.719l4.829,1.822L33.597,31.7l0.975,1.002   l1.013-4.073l4.29,5.708l-1.563,6.289c-0.618,0.081-1.222,0.177-1.81,0.289l-0.282-0.605l-0.423,0.749   c-1.598,0.347-3.084,0.815-4.465,1.405l1.726-9.104l-2.055-2.113l-2.271,12.549c-0.551,0.334-1.083,0.693-1.594,1.077l0.045-1.197   l0.169-4.453l-1.842-0.266l0.38,6.936c-0.283,0.252-0.559,0.513-0.829,0.782c-0.105,0.105-0.209,0.212-0.313,0.32l-0.436-10.045   l1.779,0.24l0.514-14.463l-2.063,0.553l-1.379,15.698l1.343,8.274c-0.449,0.486-0.877,0.998-1.287,1.536l-3.132-17.31l-3.425,2.149   l3.396,18.899c0.286,0.041,0.552,0.062,0.809,0.074c-0.964,1.926-1.794,4.132-2.522,6.685c-2.689,0.119-5.371,0.471-8.013,1.062   c0.438,2.141,0.876,4.282,1.315,6.423c0.289,0.064,0.578,0.124,0.868,0.182c-0.037,0.313-0.057,0.633-0.057,0.956   C12.46,71.171,14.409,74.017,16.998,74.921z M34.799,40.015l1.54-2.722l0.788,1.694l1.072-4.308l-1.897-2.523l-0.46,1.851   l0.039,0.04L34.799,40.015z M30.143,28.149l2.018,2.074l0.36-4.682l-1.928-0.728L30.143,28.149z M18.299,22.852l0.354,7.706   l2.55-1.601l0.583,3.222L20.87,21.857L18.299,22.852z M13.151,25.827l2.601,26.05c0.601,0.148,1.907,0.419,2.54,0.508   l-3.333-19.508l2.108-1.324l-0.277-5.592L13.151,25.827z M9.493,33.148l1.494-1.535L9.976,26.75l-1.867,0.501L9.493,33.148z    M7.252,37.667l4.912,12.896c0.432,0.218,0.88,0.418,1.344,0.601l-3.041-16.801L7.252,37.667z M6.916,46.105l-2.728-4.824   L2.447,45.02l0.915,1.616C4.544,46.438,5.729,46.262,6.916,46.105z M8.245,45.693L5.589,37.16l0.473-0.485l-0.785-3.313   l-2.343,1.494l0.925,3.861l0.211-0.453L8.245,45.693z M42.9,46.684c0.994,0,1.799-0.303,1.799-0.678   c0-0.374-0.805-0.677-1.799-0.677c-0.994,0-1.8,0.303-1.8,0.677C41.101,46.381,41.906,46.684,42.9,46.684z M38.626,48.548   c0.994,0,1.799-0.303,1.799-0.678c0-0.374-0.805-0.678-1.799-0.678c-0.994,0-1.799,0.304-1.799,0.678   C36.827,48.245,37.633,48.548,38.626,48.548z M47.174,48.548c0.994,0,1.8-0.303,1.8-0.678c0-0.374-0.806-0.678-1.8-0.678   s-1.799,0.304-1.799,0.678C45.375,48.245,46.18,48.548,47.174,48.548z M43.444,82.509c-21.615,0-24.334-4.095-24.676-9.243h-0.029   c-2.386,0-4.326-2.637-4.326-5.356s1.94-5.357,4.326-5.357h0.779c2.732-11.601,7.758-20.288,23.926-20.288   c18.489,0,22.277,12.379,23.763,20.051c0,0,5.18,0.011,5.18,5.723c0,4.951-4.178,5.32-4.178,5.32s0.078,3.854-4.095,6.281   C60.762,81.566,54.749,82.509,43.444,82.509z M61.242,58.846c-2.475,0-2.244,2.833-2.688,3.276h5.404   C63.275,61.132,63.574,58.846,61.242,58.846z M23.604,57.326c0,0,0.913-0.224,1.505-0.224c4.444,0,3.548,5.02,5.144,5.02h1.88   c1.608,0,0.523-5.02,5.02-5.02c4.401,0,3.474,5.02,5.144,5.02h1.879c1.456,0,0.556-5.02,5.021-5.02c4.486,0,3.426,5.02,5.144,5.02   h1.88c1.355,0,0.613-5.02,5.021-5.02c0.933,0,2.145,0.508,2.145,0.508s-1.846-12.879-19.942-12.879   C25.802,44.731,23.604,57.326,23.604,57.326z M49.197,58.846c-2.393,0-2.41,3.276-2.686,3.276c-0.277,0,5.649,0,5.405,0   S51.59,58.846,49.197,58.846z M37.154,58.846c-2.527,0-2.216,3.276-2.686,3.276c-0.47,0,5.934,0,5.404,0   C39.343,62.122,39.791,58.846,37.154,58.846z M22.423,62.122h5.405c-0.537,0,0-3.276-2.719-3.276   C22.383,58.846,23.056,62.122,22.423,62.122z M68.02,70.799c1.009,0,1.86-1.555,1.86-2.89c0-1.336-0.852-2.89-1.86-2.89h-49.28   c-1.008,0-1.858,1.554-1.858,2.89c0,1.335,0.851,2.89,1.858,2.89H68.02z M26.282,73.363l2.835,3.101   c0.681-0.805,1.901-2.03,3.709-3.101H26.282z M29.215,79.08l-5.232-5.717H21.25c0.141,1.662,0.582,2.725,1.95,3.659   C24.478,77.895,26.502,78.586,29.215,79.08z M65.639,73.363H37.211c-4.935,1.286-7.879,5.738-7.879,5.738   c3.46,0.596,8.366,0.94,14.113,0.94C66.809,80.042,65.498,75.025,65.639,73.363z"/></g><text x="0" y="115" fill="#000000" font-size="5px" font-weight="bold" font-family="'Helvetica Neue', Helvetica, Arial-Unicode, Arial, Sans-serif">Created by b farias</text><text x="0" y="120" fill="#000000" font-size="5px" font-weight="bold" font-family="'Helvetica Neue', Helvetica, Arial-Unicode, Arial, Sans-serif">from the Noun Project</text></svg>